<svg width="28" height="29" viewBox="0 0 28 29" fill="none" xmlns="http://www.w3.org/2000/svg">
<path d="M14.0632 21.6861C14.5881 21.6861 15.0137 21.2606 15.0137 20.7357V13.1323C15.0137 12.6074 14.5881 12.1819 14.0632 12.1819C13.5383 12.1819 13.1128 12.6074 13.1128 13.1323V20.7357C13.1128 21.2606 13.5383 21.6861 14.0632 21.6861Z" fill="#202020"/>
<path d="M14.0632 8.06335C14.7631 8.06335 15.3305 8.63071 15.3305 9.33058C15.3305 10.0305 14.7631 10.5978 14.0632 10.5978C13.3634 10.5978 12.796 10.0305 12.796 9.33058C12.796 8.63071 13.3634 8.06335 14.0632 8.06335Z" fill="#202020"/>
<path fill-rule="evenodd" clip-rule="evenodd" d="M0.44043 14.3995C0.44043 6.87587 6.53957 0.776733 14.0632 0.776733C21.5869 0.776733 27.686 6.87587 27.686 14.3995C27.686 21.9232 21.5869 28.0223 14.0632 28.0223C6.53957 28.0223 0.44043 21.9232 0.44043 14.3995ZM14.0632 2.67759C7.58938 2.67759 2.34129 7.92568 2.34129 14.3995C2.34129 20.8734 7.58938 26.1215 14.0632 26.1215C20.5371 26.1215 25.7852 20.8734 25.7852 14.3995C25.7852 7.92568 20.5371 2.67759 14.0632 2.67759Z" fill="#202020"/>
</svg>
