<svg width="26" height="28" viewBox="0 0 26 28" fill="none" xmlns="http://www.w3.org/2000/svg">
<path fill-rule="evenodd" clip-rule="evenodd" d="M11.7248 0.192383H14.4023C16.7312 0.192363 18.5758 0.192347 20.0195 0.386441C21.5052 0.586194 22.7077 1.00706 23.6561 1.95542C24.6045 2.90377 25.0253 4.10631 25.2251 5.59205C25.4192 7.03571 25.4192 8.88034 25.4191 11.2092V16.4211C25.4192 18.75 25.4192 20.5947 25.2251 22.0383C25.0253 23.524 24.6044 24.7266 23.6561 25.6749C22.7077 26.6233 21.5052 27.0442 20.0195 27.2439C18.5758 27.438 16.7312 27.438 14.4023 27.438H11.7248C9.39597 27.438 7.55133 27.438 6.10768 27.2439C4.62194 27.0442 3.4194 26.6233 2.47104 25.6749C1.52269 24.7266 1.10182 23.524 0.902066 22.0383C0.707972 20.5947 0.707988 18.75 0.708008 16.4212V11.2092C0.707988 8.88034 0.707972 7.03571 0.902066 5.59205C1.10182 4.10631 1.52269 2.90377 2.47104 1.95542C3.4194 1.00706 4.62194 0.586194 6.10768 0.386441C7.55133 0.192347 9.39596 0.192363 11.7248 0.192383ZM6.36096 2.27035C5.08601 2.44176 4.35146 2.76322 3.81515 3.29953C3.27884 3.83583 2.95739 4.57038 2.78597 5.84534C2.61088 7.14763 2.60886 8.86431 2.60886 11.2807V16.3497C2.60886 18.7661 2.61088 20.4827 2.78597 21.785C2.95738 23.06 3.27884 23.7945 3.81515 24.3308C4.35146 24.8671 5.08601 25.1886 6.36096 25.36C7.66326 25.5351 9.37994 25.5371 11.7963 25.5371H14.3308C16.7472 25.5371 18.4639 25.5351 19.7662 25.36C21.0411 25.1886 21.7757 24.8671 22.312 24.3308C22.8483 23.7945 23.1698 23.06 23.3412 21.785C23.5163 20.4827 23.5183 18.7661 23.5183 16.3497V11.2807C23.5183 8.86432 23.5163 7.14763 23.3412 5.84534C23.1698 4.57038 22.8483 3.83583 22.312 3.29953C21.7757 2.76322 21.0411 2.44176 19.7662 2.27035C18.4639 2.09526 16.7472 2.09324 14.3308 2.09324H11.7963C9.37994 2.09324 7.66326 2.09526 6.36096 2.27035ZM7.04419 8.74623C7.04419 8.22133 7.46972 7.79581 7.99462 7.79581H18.1325C18.6574 7.79581 19.0829 8.22133 19.0829 8.74623C19.0829 9.27114 18.6574 9.69666 18.1325 9.69666H7.99462C7.46972 9.69666 7.04419 9.27114 7.04419 8.74623ZM7.04419 13.8152C7.04419 13.2903 7.46972 12.8648 7.99462 12.8648H18.1325C18.6574 12.8648 19.0829 13.2903 19.0829 13.8152C19.0829 14.3401 18.6574 14.7656 18.1325 14.7656H7.99462C7.46972 14.7656 7.04419 14.3401 7.04419 13.8152ZM7.04419 18.8841C7.04419 18.3592 7.46972 17.9337 7.99462 17.9337H14.3308C14.8557 17.9337 15.2812 18.3592 15.2812 18.8841C15.2812 19.409 14.8557 19.8346 14.3308 19.8346H7.99462C7.46972 19.8346 7.04419 19.409 7.04419 18.8841Z" fill="#202020"/>
</svg>
