<svg width="28" height="28" viewBox="0 0 28 28" fill="none" xmlns="http://www.w3.org/2000/svg">
<path fill-rule="evenodd" clip-rule="evenodd" d="M20.6604 0.891142C19.3135 0.360571 18.012 0.719741 17.0907 1.53914C16.192 2.33839 15.6473 3.56971 15.6473 4.87513V9.94408C15.6473 11.1689 16.6402 12.1617 17.8649 12.1617H22.9339C24.2393 12.1617 25.4706 11.617 26.2699 10.7184C27.0893 9.79704 27.4485 8.49548 26.9179 7.14867C25.7925 4.29206 23.517 2.0165 20.6604 0.891142ZM17.5481 9.94408V4.87513C17.5481 4.08093 17.8838 3.3776 18.3539 2.95951C18.8014 2.56157 19.3569 2.4207 19.9636 2.65971C22.3298 3.59186 24.2172 5.47923 25.1493 7.8454C25.3883 8.4521 25.2475 9.00767 24.8495 9.45512C24.4314 9.92521 23.7281 10.2609 22.9339 10.2609H17.8649C17.69 10.2609 17.5481 10.1191 17.5481 9.94408Z" fill="#202020"/>
<path fill-rule="evenodd" clip-rule="evenodd" d="M12.79 2.17584C12.0163 1.67462 11.2679 1.53032 10.4461 1.67361C9.74828 1.7953 9.0013 2.13005 8.20626 2.48634L8.1206 2.52472C7.45929 2.82088 6.82105 3.17315 6.21321 3.57929C4.07715 5.00656 2.4123 7.03519 1.42918 9.40865C0.446058 11.7821 0.188829 14.3938 0.690019 16.9135C1.19121 19.4331 2.42831 21.7476 4.24488 23.5641C6.06145 25.3807 8.3759 26.6178 10.8956 27.119C13.4152 27.6202 16.0269 27.363 18.4004 26.3798C20.7738 25.3967 22.8025 23.7319 24.2297 21.5958C24.6359 20.988 24.9881 20.3497 25.2843 19.6884L25.3227 19.6027C25.679 18.8077 26.0137 18.0607 26.1354 17.3629C26.2787 16.5411 26.1344 15.7927 25.6332 15.019C25.0928 14.185 24.353 13.7774 23.4483 13.5927C22.6451 13.4288 21.6413 13.4289 20.4909 13.429L18.4986 13.429C17.2769 13.429 16.4563 13.427 15.8442 13.3447C15.2594 13.266 15.0091 13.1302 14.844 12.965C14.6789 12.7999 14.543 12.5496 14.4644 11.9648C14.3821 11.3527 14.38 10.5321 14.38 9.31045L14.38 7.31813C14.3802 6.16771 14.3803 5.16396 14.2163 4.36068C14.0316 3.45599 13.624 2.7162 12.79 2.17584ZM8.89752 4.25956C9.80891 3.8514 10.3372 3.62214 10.7727 3.54621C11.1093 3.48752 11.3737 3.52318 11.7564 3.77116C12.0788 3.98 12.2494 4.22928 12.3538 4.74086C12.4746 5.33263 12.4792 6.14038 12.4792 7.40959L12.4792 9.37634C12.4792 10.5149 12.4791 11.4644 12.5805 12.2181C12.6874 13.0137 12.9227 13.7319 13.4999 14.3091C14.0771 14.8863 14.7954 15.1216 15.5909 15.2286C16.3446 15.3299 17.2941 15.3299 18.4326 15.3298L20.3994 15.3298C21.6686 15.3298 22.4764 15.3344 23.0682 15.4552C23.5797 15.5596 23.829 15.7302 24.0379 16.0526C24.2858 16.4353 24.3215 16.6998 24.2628 17.0363C24.1869 17.4718 23.9576 18.0001 23.5495 18.9115C23.2966 19.476 22.9959 20.0208 22.6492 20.5397C21.4308 22.3632 19.6991 23.7844 17.6729 24.6237C15.6468 25.4629 13.4173 25.6825 11.2664 25.2547C9.11547 24.8268 7.13972 23.7708 5.58899 22.22C4.03826 20.6693 2.9822 18.6935 2.55435 16.5426C2.1265 14.3917 2.34609 12.1622 3.18534 10.1361C4.02459 8.10995 5.44581 6.3782 7.26927 5.15979C7.78818 4.81307 8.333 4.51237 8.89752 4.25956Z" fill="#202020"/>
</svg>
