<svg width="26" height="29" viewBox="0 0 26 29" fill="none" xmlns="http://www.w3.org/2000/svg">
<path fill-rule="evenodd" clip-rule="evenodd" d="M13.0633 9.68212C10.4387 9.68212 8.31113 11.8097 8.31113 14.4343C8.31113 17.0588 10.4387 19.1864 13.0633 19.1864C15.6878 19.1864 17.8154 17.0588 17.8154 14.4343C17.8154 11.8097 15.6878 9.68212 13.0633 9.68212ZM10.212 14.4343C10.212 12.8595 11.4885 11.583 13.0633 11.583C14.638 11.583 15.9145 12.8595 15.9145 14.4343C15.9145 16.009 14.638 17.2855 13.0633 17.2855C11.4885 17.2855 10.212 16.009 10.212 14.4343Z" fill="#202020"/>
<path fill-rule="evenodd" clip-rule="evenodd" d="M13.0313 0.811463C12.468 0.811453 11.9978 0.811446 11.6118 0.837783C11.21 0.865201 10.8304 0.924308 10.4624 1.07674C9.6085 1.43043 8.93008 2.10885 8.57638 2.96275C8.39225 3.40729 8.34238 3.87579 8.32334 4.38503C8.30803 4.79438 8.10144 5.13592 7.79656 5.31194C7.49168 5.48796 7.09261 5.4961 6.73045 5.30468C6.27991 5.06655 5.84924 4.87548 5.37219 4.81268C4.45584 4.69204 3.5291 4.94036 2.79584 5.50301C2.47984 5.74549 2.23887 6.04465 2.0142 6.37895C1.79838 6.70008 1.56329 7.10728 1.28168 7.59507L1.24968 7.6505C0.968053 8.13827 0.732952 8.54546 0.562753 8.89293C0.385577 9.25464 0.246981 9.61291 0.194991 10.0078C0.0743513 10.9242 0.322671 11.8509 0.88532 12.5842C1.1782 12.9659 1.55894 13.2433 1.99036 13.5143C2.3373 13.7323 2.52983 14.0821 2.52981 14.4342C2.52979 14.7863 2.33726 15.1361 1.99036 15.354C1.55889 15.6251 1.1781 15.9026 0.885196 16.2843C0.322547 17.0175 0.0742272 17.9443 0.194866 18.8606C0.246857 19.2555 0.385453 19.6138 0.562629 19.9755C0.732825 20.323 0.967923 20.7302 1.24954 21.2179L1.28156 21.2734C1.56317 21.7612 1.79826 22.1684 2.01408 22.4895C2.23874 22.8238 2.47972 23.123 2.79572 23.3654C3.52898 23.9281 4.45572 24.1764 5.37206 24.0558C5.84909 23.993 6.27974 23.8019 6.73025 23.5638C7.09246 23.3724 7.49159 23.3805 7.7965 23.5565C8.10141 23.7326 8.30803 24.0742 8.32334 24.4836C8.34239 24.9928 8.39226 25.4613 8.57638 25.9058C8.93008 26.7597 9.6085 27.4381 10.4624 27.7918C10.8304 27.9442 11.21 28.0033 11.6118 28.0307C11.9978 28.0571 12.468 28.0571 13.0312 28.0571H13.0953C13.6585 28.0571 14.1287 28.0571 14.5147 28.0307C14.9165 28.0033 15.2961 27.9442 15.6641 27.7918C16.518 27.4381 17.1964 26.7597 17.5501 25.9058C17.7343 25.4612 17.7841 24.9927 17.8032 24.4835C17.8185 24.0741 18.025 23.7326 18.3299 23.5565C18.6348 23.3805 19.034 23.3723 19.3962 23.5637C19.8467 23.8018 20.2773 23.9929 20.7543 24.0557C21.6707 24.1763 22.5974 23.928 23.3307 23.3653C23.6467 23.1229 23.8876 22.8237 24.1123 22.4894C24.3281 22.1683 24.5632 21.7611 24.8448 21.2734L24.8768 21.2179C25.1584 20.7302 25.3936 20.3229 25.5637 19.9754C25.7409 19.6137 25.8795 19.2554 25.9315 18.8605C26.0522 17.9442 25.8038 17.0175 25.2412 16.2842C24.9483 15.9025 24.5675 15.6251 24.1361 15.354C23.7892 15.136 23.5967 14.7863 23.5967 14.4342C23.5967 14.0822 23.7892 13.7325 24.1361 13.5146C24.5676 13.2434 24.9484 12.966 25.2413 12.5842C25.804 11.851 26.0523 10.9243 25.9316 10.0079C25.8796 9.613 25.741 9.25473 25.5639 8.89302C25.3937 8.54557 25.1586 8.13841 24.877 7.65068L24.845 7.59521C24.5634 7.10742 24.3282 6.70017 24.1124 6.37903C23.8878 6.04474 23.6468 5.74557 23.3308 5.5031C22.5975 4.94045 21.6708 4.69213 20.7544 4.81277C20.2774 4.87557 19.8468 5.06662 19.3963 5.30473C19.034 5.49617 18.6349 5.48803 18.33 5.31198C18.0251 5.13594 17.8185 4.79436 17.8032 4.38495C17.7841 3.87575 17.7342 3.40727 17.5501 2.96275C17.1964 2.10885 16.518 1.43043 15.6641 1.07674C15.2961 0.924308 14.9165 0.865201 14.5147 0.837783C14.1287 0.811446 13.6585 0.811453 13.0952 0.811463H13.0313ZM11.1898 2.8329C11.2876 2.7924 11.4361 2.75504 11.7412 2.73423C12.0548 2.71283 12.4598 2.71232 13.0633 2.71232C13.6667 2.71232 14.0717 2.71283 14.3853 2.73423C14.6904 2.75504 14.8389 2.7924 14.9367 2.8329C15.3248 2.99367 15.6332 3.30204 15.794 3.69018C15.8447 3.81261 15.8867 4.00347 15.9036 4.456C15.9412 5.46013 16.4595 6.42695 17.3796 6.95817C18.2997 7.48939 19.3961 7.45483 20.2845 6.98529C20.6849 6.77368 20.8712 6.71466 21.0025 6.69736C21.4191 6.64252 21.8403 6.7554 22.1736 7.01115C22.2576 7.07557 22.3642 7.18553 22.5347 7.43931C22.7101 7.7002 22.913 8.05068 23.2148 8.57329C23.5165 9.09591 23.7185 9.4469 23.8568 9.72918C23.9913 10.0038 24.0332 10.1511 24.047 10.256C24.1019 10.6725 23.989 11.0938 23.7333 11.4271C23.6526 11.5322 23.5083 11.6641 23.1248 11.905C22.274 12.4396 21.6959 13.3717 21.6958 14.4341C21.6958 15.4966 22.2739 16.4289 23.1248 16.9635C23.5082 17.2044 23.6525 17.3362 23.7331 17.4414C23.9889 17.7747 24.1018 18.1959 24.0469 18.6124C24.0331 18.7173 23.9912 18.8647 23.8567 19.1393C23.7184 19.4215 23.5164 19.7725 23.2146 20.2951C22.9129 20.8178 22.71 21.1682 22.5346 21.4291C22.3641 21.6829 22.2574 21.7929 22.1735 21.8573C21.8402 22.113 21.4189 22.2259 21.0024 22.1711C20.871 22.1538 20.6847 22.0948 20.2844 21.8832C19.396 21.4136 18.2995 21.3791 17.3794 21.9104C16.4594 22.4416 15.9412 23.4084 15.9036 24.4124C15.8867 24.865 15.8447 25.0559 15.794 25.1783C15.6332 25.5665 15.3248 25.8749 14.9367 26.0356C14.8389 26.0761 14.6904 26.1135 14.3853 26.1343C14.0717 26.1557 13.6667 26.1562 13.0633 26.1562C12.4598 26.1562 12.0548 26.1557 11.7412 26.1343C11.4361 26.1135 11.2876 26.0761 11.1898 26.0356C10.8017 25.8749 10.4933 25.5665 10.3325 25.1784C10.2818 25.0559 10.2398 24.8651 10.2229 24.4125C10.1853 23.4084 9.66702 22.4416 8.74692 21.9104C7.82683 21.3791 6.73039 21.4137 5.84201 21.8832C5.44165 22.0948 5.25534 22.1539 5.12395 22.1712C4.70743 22.226 4.28619 22.1131 3.95289 21.8574C3.86893 21.793 3.76231 21.683 3.59175 21.4292C3.41642 21.1683 3.21348 20.8178 2.91175 20.2952C2.61002 19.7726 2.40796 19.4216 2.2697 19.1393C2.13519 18.8647 2.09327 18.7174 2.07946 18.6125C2.02462 18.196 2.1375 17.7747 2.39325 17.4414C2.47392 17.3363 2.6182 17.2045 3.00165 16.9635C3.85245 16.429 4.43061 15.4967 4.43067 14.4343C4.43073 13.3718 3.85254 12.4395 3.00167 11.9048C2.61829 11.6639 2.47404 11.5321 2.39337 11.427C2.13762 11.0937 2.02475 10.6724 2.07958 10.2559C2.0934 10.151 2.13532 10.0037 2.26982 9.72909C2.40809 9.44681 2.61014 9.09582 2.91187 8.5732C3.2136 8.05059 3.41655 7.70011 3.59188 7.43923C3.76243 7.18545 3.86905 7.07548 3.95301 7.01106C4.28631 6.75531 4.70755 6.64244 5.12408 6.69727C5.25547 6.71457 5.44179 6.7736 5.8422 6.98524C6.73054 7.45476 7.82693 7.48932 8.74698 6.95814C9.66704 6.42694 10.1853 5.46016 10.2229 4.45606C10.2398 4.00349 10.2818 3.81262 10.3325 3.69018C10.4933 3.30204 10.8017 2.99367 11.1898 2.8329Z" fill="#202020"/>
</svg>
