
<svg width="24" height="28" viewBox="0 0 24 28" fill="none" xmlns="http://www.w3.org/2000/svg">
<path fill-rule="evenodd" clip-rule="evenodd" d="M9.45916 0.157655H14.6672C16.4002 0.157628 17.7971 0.157607 18.8958 0.305317C20.0364 0.458674 20.9969 0.786754 21.7596 1.54952C22.5224 2.3123 22.8505 3.2727 23.0038 4.41335C23.1515 5.51201 23.1515 6.90891 23.1515 8.64197V18.9189C23.1515 20.652 23.1515 22.0489 23.0038 23.1476C22.8505 24.2882 22.5224 25.2486 21.7596 26.0114C20.9969 26.7742 20.0364 27.1022 18.8958 27.2556C17.7971 27.4033 16.4002 27.4033 14.6672 27.4033H9.45916C7.7261 27.4033 6.3292 27.4033 5.23054 27.2556C4.08989 27.1022 3.12949 26.7742 2.36671 26.0114C1.60394 25.2486 1.27586 24.2882 1.12251 23.1476C1.07347 22.7828 1.04071 22.3852 1.01884 21.9533C0.969312 21.797 0.959668 21.6262 0.998618 21.4559C0.974818 20.7057 0.97483 19.8621 0.974845 18.9189V8.64197C0.974819 6.90891 0.974797 5.51201 1.12251 4.41335C1.27586 3.2727 1.60394 2.3123 2.36671 1.54952C3.12949 0.786754 4.08989 0.458674 5.23054 0.305317C6.3292 0.157607 7.7261 0.157628 9.45916 0.157655ZM2.90961 21.6995C2.92887 22.1479 2.95907 22.5421 3.00641 22.8943C3.13143 23.8241 3.3601 24.3166 3.71082 24.6673C4.06155 25.018 4.55396 25.2467 5.48383 25.3717C6.44104 25.5004 7.70968 25.5024 9.5287 25.5024H14.5976C16.4167 25.5024 17.6853 25.5004 18.6425 25.3717C19.5724 25.2467 20.0648 25.018 20.4155 24.6673C20.6643 24.4185 20.8517 24.0984 20.9842 23.6015H6.99422C6.46932 23.6015 6.04379 23.176 6.04379 22.6511C6.04379 22.1262 6.46932 21.7007 6.99422 21.7007H21.2167C21.2402 21.1545 21.2474 20.528 21.2497 19.7998H6.86468C5.625 19.7998 5.1916 19.808 4.85948 19.897C3.94793 20.1412 3.22125 20.8188 2.90961 21.6995ZM21.2506 17.899H6.86468C6.81504 17.899 6.76613 17.899 6.71794 17.8989C5.68139 17.8986 4.97408 17.8984 4.3675 18.0609C3.82515 18.2062 3.32207 18.4436 2.8757 18.7555V8.71151C2.8757 6.89249 2.87772 5.62385 3.00641 4.66664C3.13143 3.73677 3.3601 3.24436 3.71082 2.89363C4.06155 2.54291 4.55396 2.31424 5.48383 2.18922C6.44104 2.06053 7.70968 2.05851 9.5287 2.05851H14.5976C16.4167 2.05851 17.6853 2.06053 18.6425 2.18922C19.5724 2.31424 20.0648 2.54291 20.4155 2.89363C20.7662 3.24436 20.9949 3.73677 21.1199 4.66664C21.2486 5.62385 21.2506 6.89249 21.2506 8.71151V17.899ZM6.04379 7.44427C6.04379 6.91936 6.46932 6.49384 6.99422 6.49384H17.1321C17.657 6.49384 18.0825 6.91936 18.0825 7.44427C18.0825 7.96918 17.657 8.3947 17.1321 8.3947H6.99422C6.46932 8.3947 6.04379 7.96918 6.04379 7.44427ZM6.04379 11.8796C6.04379 11.3547 6.46932 10.9292 6.99422 10.9292H13.3304C13.8553 10.9292 14.2808 11.3547 14.2808 11.8796C14.2808 12.4045 13.8553 12.83 13.3304 12.83H6.99422C6.46932 12.83 6.04379 12.4045 6.04379 11.8796Z" fill="#202020"/>
</svg>
