<svg width="33" height="33" viewBox="0 0 33 33" fill="none" xmlns="http://www.w3.org/2000/svg">
<path d="M16.3857 0.551819C17.4326 0.551866 18.3842 0.851803 19.416 1.35358C20.4133 1.8386 21.5659 2.55326 23.0049 3.44635L26.0605 5.34283C27.4224 6.18799 28.513 6.86517 29.3535 7.50885C30.2239 8.17542 30.8931 8.8542 31.376 9.73639C31.8578 10.6167 32.0747 11.554 32.1787 12.6612C32.2795 13.7342 32.2793 15.047 32.2793 16.6924V19.0762C32.2793 21.8908 32.2795 24.1125 32.0537 25.8497C31.8221 27.6317 31.3349 29.0706 30.2354 30.2081C29.1307 31.3507 27.7246 31.8615 25.9844 32.1036C24.2977 32.3381 22.1432 32.338 19.4287 32.338H13.3428C10.6283 32.338 8.47371 32.3381 6.78711 32.1036C5.04698 31.8615 3.64077 31.3506 2.53613 30.2081C1.43669 29.0707 0.950357 27.6315 0.71875 25.8497C0.492997 24.1125 0.493143 21.8908 0.493164 19.0762V16.6924C0.493152 15.0469 0.492932 13.7343 0.59375 12.6612C0.6978 11.5539 0.91458 10.6168 1.39648 9.73639C1.87939 8.85421 2.54856 8.17542 3.41895 7.50885C4.25945 6.86521 5.35018 6.18795 6.71191 5.34283L9.7666 3.44635C11.2059 2.55308 12.359 1.83864 13.3564 1.35358C14.3881 0.85191 15.3391 0.551889 16.3857 0.551819ZM16.3857 19.7715C15.7734 19.7716 15.2774 20.2677 15.2773 20.8799V25.3155C15.2774 25.9278 15.7734 26.4238 16.3857 26.4239C16.9981 26.4239 17.4951 25.9278 17.4951 25.3155V20.8799C17.495 20.2676 16.9981 19.7715 16.3857 19.7715Z" fill="#4DAAB9"/>
</svg>
