<svg width="28" height="23" viewBox="0 0 28 23" fill="none" xmlns="http://www.w3.org/2000/svg">
<path fill-rule="evenodd" clip-rule="evenodd" d="M11.6936 0.780579H16.9055C19.2344 0.780559 21.079 0.780543 22.5227 0.974637C24.0084 1.17439 25.211 1.59526 26.1593 2.54361C27.1077 3.49197 27.5285 4.69451 27.7283 6.18025C27.9224 7.6239 27.9224 9.46854 27.9224 11.7974V11.9404C27.9224 14.2693 27.9224 16.1139 27.7283 17.5576C27.5285 19.0433 27.1077 20.2458 26.1593 21.1942C25.211 22.1425 24.0084 22.5634 22.5227 22.7632C21.079 22.9573 19.2344 22.9572 16.9055 22.9572H11.6936C9.36472 22.9572 7.52008 22.9573 6.07643 22.7632C4.59069 22.5634 3.38815 22.1425 2.43979 21.1942C1.49144 20.2458 1.07057 19.0433 0.870816 17.5576C0.676722 16.1139 0.676738 14.2693 0.676758 11.9404V11.7974C0.676738 9.46853 0.676722 7.6239 0.870816 6.18025C1.07057 4.69451 1.49144 3.49197 2.43979 2.54361C3.38815 1.59526 4.59069 1.17439 6.07643 0.974637C7.52008 0.780543 9.36471 0.780559 11.6936 0.780579ZM6.32971 2.85854C5.05476 3.02996 4.32021 3.35141 3.7839 3.88772C3.24759 4.42403 2.92614 5.15858 2.75472 6.43353C2.57963 7.73583 2.57761 9.45251 2.57761 11.8689C2.57761 14.2853 2.57963 16.002 2.75472 17.3043C2.92614 18.5792 3.24759 19.3138 3.7839 19.8501C4.32021 20.3864 5.05476 20.7079 6.32971 20.8793C7.63201 21.0544 9.34869 21.0564 11.7651 21.0564H16.834C19.2504 21.0564 20.9671 21.0544 22.2694 20.8793C23.5444 20.7079 24.2789 20.3864 24.8152 19.8501C25.3515 19.3138 25.673 18.5792 25.8444 17.3043C26.0195 16.002 26.0215 14.2853 26.0215 11.8689C26.0215 9.45251 26.0195 7.73583 25.8444 6.43353C25.673 5.15858 25.3515 4.42403 24.8152 3.88772C24.2789 3.35141 23.5444 3.02996 22.2694 2.85854C20.9671 2.68345 19.2504 2.68144 16.834 2.68144H11.7651C9.34869 2.68144 7.63201 2.68345 6.32971 2.85854ZM5.966 6.19151C6.30203 5.78826 6.90134 5.73378 7.30458 6.06982L10.0404 8.34968C11.2227 9.33491 12.0435 10.0167 12.7365 10.4624C13.4074 10.8939 13.8623 11.0387 14.2996 11.0387C14.7368 11.0387 15.1918 10.8939 15.8626 10.4624C16.5556 10.0167 17.3764 9.33491 18.5587 8.34968L21.2945 6.06982C21.6978 5.73378 22.2971 5.78826 22.6331 6.19151C22.9692 6.59475 22.9147 7.19406 22.5114 7.5301L19.728 9.84966C18.6047 10.7857 17.6943 11.5444 16.8908 12.0612C16.0538 12.5995 15.2387 12.9396 14.2996 12.9396C13.3604 12.9396 12.5453 12.5995 11.7083 12.0612C10.9048 11.5444 9.99439 10.7857 8.87117 9.84967L6.08769 7.5301C5.68444 7.19406 5.62996 6.59475 5.966 6.19151Z" fill="#202020"/>
</svg>
