<svg width="28" height="28" viewBox="0 0 28 28" fill="none" xmlns="http://www.w3.org/2000/svg">
<path fill-rule="evenodd" clip-rule="evenodd" d="M10.6349 0.220524C10.1831 -0.0465965 9.60022 0.103162 9.3331 0.555018C9.06598 1.00687 9.21574 1.58972 9.6676 1.85684L9.91588 2.00361L1.39357 16.7138C-0.568993 20.1013 0.59701 24.4314 3.99278 26.3852C7.38664 28.3379 11.7279 27.1804 13.6893 23.7948L22.2162 9.07677L22.4599 9.21711C22.9149 9.47898 23.4959 9.32248 23.7578 8.86756C24.0197 8.41264 23.8632 7.83157 23.4083 7.5697L22.3431 6.95652L11.6889 0.843581L10.6349 0.220524ZM3.03833 17.6667L11.5585 2.96027L20.5681 8.12962L18.6609 11.4216L16.2406 10.029C15.7856 9.76724 15.2046 9.92386 14.9428 10.3788C14.681 10.8338 14.8377 11.4148 15.2926 11.6766L17.708 13.0663L16.4896 15.1694L11.9848 12.5775C11.5298 12.3157 10.9488 12.4723 10.687 12.9273C10.4252 13.3823 10.5819 13.9633 11.0368 14.2251L15.5367 16.8141L14.4144 18.7513L11.9249 17.3189C11.4699 17.0571 10.8888 17.2137 10.6271 17.6687C10.3653 18.1237 10.5219 18.7047 10.9769 18.9665L13.4615 20.396L12.0445 22.8419C10.6098 25.3184 7.42925 26.1694 4.94075 24.7376C2.45415 23.3069 1.60471 20.1412 3.03833 17.6667Z" fill="#202020"/>
<path fill-rule="evenodd" clip-rule="evenodd" d="M25.6907 13.8396C24.8761 12.9801 23.5266 12.9801 22.712 13.8396C22.3223 14.2509 21.8467 14.7966 21.4626 15.3784C21.1022 15.9245 20.7164 16.6564 20.7164 17.4071C20.7164 19.3531 22.2405 20.9976 24.2013 20.9976C26.1622 20.9976 27.6862 19.3531 27.6862 17.4071C27.6862 16.6564 27.3005 15.9245 26.9401 15.3784C26.556 14.7966 26.0804 14.2509 25.6907 13.8396ZM24.0917 15.1472C24.1288 15.108 24.1677 15.0959 24.2013 15.0959C24.235 15.0959 24.2739 15.108 24.311 15.1472C24.664 15.5197 25.0559 15.9746 25.3537 16.4256C25.675 16.9124 25.7854 17.2454 25.7854 17.4071C25.7854 18.3772 25.04 19.0967 24.2013 19.0967C23.3627 19.0967 22.6173 18.3772 22.6173 17.4071C22.6173 17.2454 22.7277 16.9124 23.049 16.4256C23.3467 15.9746 23.7387 15.5197 24.0917 15.1472Z" fill="#202020"/>
</svg>
