<svg width="28" height="28" viewBox="0 0 28 28" fill="none" xmlns="http://www.w3.org/2000/svg">
<path fill-rule="evenodd" clip-rule="evenodd" d="M9.37457 10.0672C9.37457 7.44266 11.5022 5.31506 14.1267 5.31506C16.7512 5.31506 18.8788 7.44266 18.8788 10.0672C18.8788 12.6917 16.7512 14.8193 14.1267 14.8193C11.5022 14.8193 9.37457 12.6917 9.37457 10.0672ZM14.1267 7.21591C12.552 7.21591 11.2754 8.49248 11.2754 10.0672C11.2754 11.6419 12.552 12.9185 14.1267 12.9185C15.7014 12.9185 16.978 11.6419 16.978 10.0672C16.978 8.49248 15.7014 7.21591 14.1267 7.21591Z" fill="#202020"/>
<path fill-rule="evenodd" clip-rule="evenodd" d="M0.503906 13.8689C0.503906 6.34524 6.60304 0.246109 14.1267 0.246109C21.6504 0.246109 27.7495 6.34524 27.7495 13.8689C27.7495 21.3926 21.6504 27.4917 14.1267 27.4917C6.60304 27.4917 0.503906 21.3926 0.503906 13.8689ZM14.1267 2.14696C7.65286 2.14696 2.40476 7.39506 2.40476 13.8689C2.40476 17.0948 3.70782 20.0163 5.8163 22.1358C6.0449 20.9026 6.49406 19.7399 7.39561 18.8049C8.74415 17.4064 10.9005 16.7202 14.1266 16.7202C17.3528 16.7202 19.5091 17.4064 20.8577 18.8049C21.7592 19.7399 22.2084 20.9026 22.437 22.1359C24.5455 20.0164 25.8486 17.0948 25.8486 13.8689C25.8486 7.39506 20.6006 2.14696 14.1267 2.14696ZM20.7083 23.5701C20.5792 22.0343 20.2457 20.9088 19.4893 20.1244C18.6663 19.2708 17.1413 18.621 14.1266 18.621C11.1119 18.621 9.58697 19.2708 8.76394 20.1244C8.00756 20.9088 7.67407 22.0343 7.54496 23.57C9.42125 24.8455 11.6869 25.5909 14.1267 25.5909C16.5664 25.5909 18.8321 24.8455 20.7083 23.5701Z" fill="#202020"/>
</svg>
